<?xml version="1.0" encoding="UTF-8"?>
<svg id="Layer_1" data-name="Layer 1" xmlns="http://www.w3.org/2000/svg" xmlns:xlink="http://www.w3.org/1999/xlink" version="1.1" viewBox="0 0 34 23">
  <defs>
    <style>
      .cls-1 {
        fill: url(#linear-gradient);
        fill-rule: evenodd;
        stroke-width: 0px;
      }
    </style>
    <linearGradient id="linear-gradient" x1="8" y1="27.7" x2="25.8" y2="-1.3" gradientTransform="translate(0 24) scale(1 -1)" gradientUnits="userSpaceOnUse">
      <stop offset=".3" stop-color="#ff9364"/>
      <stop offset="1" stop-color="#ffbc5e"/>
    </linearGradient>
  </defs>
  <path class="cls-1" d="M9.6.1l1.5.9c.3.2.3.5.1.7-2.2,2.7-4.1,5.5-4.1,9.1,2.9,0,6,2.4,6,5.5s-3.5,7-7,6.5c-3.5-.5-5.5-3-6-6C-.8,10,3,3.8,8.6.2c.3-.2.7-.2,1,0ZM30.5.1l1.5.9c.3.2.3.5.1.7-2.2,2.7-4.1,5.5-4.1,9.1,2.9,0,6,2.4,6,5.5s-3.5,7-7,6.5c-3.5-.5-5.5-3-6-6-1-6.9,2.8-13.1,8.4-16.8.3-.2.7-.2,1,0Z"/>
</svg>