<?xml version="1.0" encoding="UTF-8"?>
<svg id="Layer_1" data-name="Layer 1" xmlns="http://www.w3.org/2000/svg" xmlns:xlink="http://www.w3.org/1999/xlink" version="1.1" viewBox="0 0 42 32">
  <defs>
    <style>
      .cls-1 {
        fill: url(#linear-gradient);
      }

      .cls-1, .cls-2, .cls-3, .cls-4 {
        stroke: #ff860d;
        stroke-width: .8px;
      }

      .cls-2 {
        fill: url(#linear-gradient-2);
      }

      .cls-3 {
        fill: url(#linear-gradient-4);
      }

      .cls-4 {
        fill: url(#linear-gradient-3);
      }

      .cls-5 {
        fill: url(#linear-gradient-7);
      }

      .cls-5, .cls-6, .cls-7 {
        stroke-width: 0px;
      }

      .cls-6 {
        fill: url(#linear-gradient-5);
      }

      .cls-7 {
        fill: url(#linear-gradient-6);
      }
    </style>
    <linearGradient id="linear-gradient" x1="3.5" y1="16" x2="38.5" y2="16" gradientUnits="userSpaceOnUse">
      <stop offset=".3" stop-color="#ff9e00"/>
      <stop offset="1" stop-color="#ff804b"/>
    </linearGradient>
    <linearGradient id="linear-gradient-2" x1="19.1" y1="19.3" x2="22.6" y2="19.3" xlink:href="#linear-gradient"/>
    <linearGradient id="linear-gradient-3" x1="13" y1="19.3" x2="17.9" y2="19.3" xlink:href="#linear-gradient"/>
    <linearGradient id="linear-gradient-4" x1="24.1" y1="19.3" x2="29" y2="19.3" xlink:href="#linear-gradient"/>
    <linearGradient id="linear-gradient-5" x1="6" y1="5.2" x2="9.6" y2="5.2" xlink:href="#linear-gradient"/>
    <linearGradient id="linear-gradient-6" x1="17.2" y1="5.3" x2="20.8" y2="5.3" xlink:href="#linear-gradient"/>
    <linearGradient id="linear-gradient-7" x1="11.6" y1="5.2" x2="15.2" y2="5.2" xlink:href="#linear-gradient"/>
  </defs>
  <path class="cls-1" d="M38.5,4v24s0,0,0,.1c-.5,2.1-1.9,3.3-4.1,3.3-5.8,0-11.6,0-17.5,0-3.1,0-6.2,0-9.4,0-2.2,0-3.9-1.7-3.9-3.9,0-7.7,0-15.4,0-23.1,0-.6.1-1.1.4-1.6.8-1.5,2-2.3,3.7-2.3,8.9,0,17.8,0,26.8,0,.1,0,.3,0,.4,0,1.6.1,2.7.9,3.4,2.3.2.3.2.7.3,1.1ZM21,9.8c-5.3,0-10.6,0-16,0-.3,0-.4,0-.4.4,0,5.7,0,11.4,0,17.1,0,1.7,1.2,2.9,2.9,2.9,8.9,0,17.9,0,26.8,0,.3,0,.6,0,.9-.1,1.3-.4,2-1.4,2-2.8,0-5.7,0-11.4,0-17.1,0-.3,0-.4-.4-.4-5.3,0-10.6,0-15.8,0ZM21,8.7c5.3,0,10.6,0,15.9,0,.3,0,.4,0,.4-.4,0-1.2,0-2.4,0-3.6,0-1.7-1.2-2.9-2.9-2.9-8.9,0-17.9,0-26.8,0-1.7,0-2.9,1.2-2.9,2.9,0,1.2,0,2.4,0,3.6,0,.5,0,.5.4.5,5.3,0,10.5,0,15.8,0Z"/>
  <path class="cls-2" d="M22.6,13.9c-.1.6-.3,1.4-.4,2.1-.6,2.9-1.2,5.8-1.8,8.7,0,0,0,.2,0,.3,0,.3-.4.5-.7.5-.3,0-.5-.4-.4-.7.1-.7.3-1.4.4-2.2.6-2.9,1.2-5.8,1.8-8.7,0-.3.2-.6.6-.6.3,0,.6.2.6.7Z"/>
  <path class="cls-4" d="M17.3,23c-.2,0-.3-.1-.5-.2-1.2-1-2.4-2-3.5-3-.4-.3-.4-.7,0-1,1.2-1,2.4-2,3.6-3,.3-.3.7-.3.9,0,.2.3.2.6-.2.9-.9.8-1.9,1.6-2.8,2.4-.2.2-.3.3,0,.5.9.8,1.9,1.6,2.8,2.4.2.2.4.3.3.6,0,.3-.3.6-.6.5Z"/>
  <path class="cls-3" d="M29,19.3c0,.2-.1.4-.3.5-1.2,1-2.4,2-3.6,3-.3.3-.7.3-.9,0-.2-.2-.2-.6.1-.9,1-.8,1.9-1.7,2.9-2.5.2-.2.2-.2,0-.4-.9-.8-1.9-1.6-2.8-2.4,0,0-.2-.1-.2-.2-.2-.2-.2-.6,0-.8.2-.2.5-.3.7,0,.3.2.6.5.9.8.9.8,1.8,1.5,2.7,2.3.2.2.3.3.3.6Z"/>
  <path class="cls-6" d="M9.6,5.2c0,1-.8,1.8-1.8,1.8-1,0-1.8-.8-1.8-1.8,0-1,.8-1.8,1.8-1.8,1,0,1.8.8,1.8,1.8ZM8.5,5.2c0-.3-.3-.7-.7-.7-.4,0-.7.3-.7.7,0,.4.3.7.7.7.4,0,.7-.3.7-.7Z"/>
  <path class="cls-7" d="M20.8,5.3c0,1-.8,1.8-1.8,1.8-1,0-1.8-.8-1.8-1.8,0-1,.8-1.8,1.8-1.8,1,0,1.8.8,1.8,1.8ZM19,4.6c-.4,0-.7.3-.7.6,0,.4.3.7.7.7.4,0,.6-.3.7-.6,0-.4-.3-.7-.7-.7Z"/>
  <path class="cls-5" d="M13.4,3.4c1,0,1.8.8,1.8,1.8,0,1-.8,1.8-1.8,1.8-1,0-1.8-.8-1.8-1.8,0-1,.8-1.8,1.8-1.8ZM13.4,4.6c-.4,0-.7.3-.7.6,0,.4.3.7.6.7.4,0,.7-.3.7-.6,0-.4-.3-.7-.6-.7Z"/>
</svg>