<?xml version="1.0" encoding="UTF-8"?>
<svg id="Layer_1" data-name="Layer 1" xmlns="http://www.w3.org/2000/svg" xmlns:xlink="http://www.w3.org/1999/xlink" version="1.1" viewBox="0 0 42 32">
  <defs>
    <style>
      .cls-1 {
        fill: url(#linear-gradient);
      }

      .cls-1, .cls-2, .cls-3, .cls-4, .cls-5 {
        stroke: #ff860d;
        stroke-width: .2px;
      }

      .cls-2 {
        fill: url(#linear-gradient-3);
      }

      .cls-3 {
        fill: url(#linear-gradient-2);
      }

      .cls-4 {
        fill: url(#linear-gradient-4);
      }

      .cls-5 {
        fill: url(#linear-gradient-5);
      }
    </style>
    <linearGradient id="linear-gradient" x1="3.8" y1="1062" x2="39" y2="1062" gradientTransform="translate(0 -1046)" gradientUnits="userSpaceOnUse">
      <stop offset=".3" stop-color="#ff9e00"/>
      <stop offset="1" stop-color="#ff804b"/>
    </linearGradient>
    <linearGradient id="linear-gradient-2" x1="7.9" y1="1069.6" x2="13.5" y2="1069.6" xlink:href="#linear-gradient"/>
    <linearGradient id="linear-gradient-3" x1="14.6" y1="1053.3" x2="20.2" y2="1053.3" xlink:href="#linear-gradient"/>
    <linearGradient id="linear-gradient-4" x1="7.1" y1="1055.5" x2="12.6" y2="1055.5" xlink:href="#linear-gradient"/>
    <linearGradient id="linear-gradient-5" x1="21" y1="1057.9" x2="26.6" y2="1057.9" xlink:href="#linear-gradient"/>
  </defs>
  <path class="cls-1" d="M4.4,5.7c.8-1.3,2.1-2.2,3.4-3.1C10.4,1.1,13.2.1,16.3.3c6.6.4,11.4,3.6,14.1,9.7h0c0,.2.1.3.3,0,.8-.7,1.7-1.3,2.4-2.1,1-.9,2.2-1.8,3.3-2.5.4-.2.8-.4,1.2-.6.8-.2,1.3.3,1.1,1.1-.1.7-.4,1.1-.9,1.8-1.5,2.2-3.1,4.1-4.9,6.1-.6.7-1.1,1.2-1.8,2,0,.1-.1.2-.1.4-.1,7-5,12.7-11.1,14.7-5,1.5-9.4.7-13.6-2.3-1.3-.9-2.3-2.2-2.8-3.9,0-.2-.1-.6-.2-.8v-1.1h0c.1-1.7,1-2.8,2.2-3.8.4-.3,1-.8,1.5-1.1.3-.3.7-.8.8-1.2.2-1,0-2-.9-2.6-.4-.4-1-.8-1.7-1.2-.8-.7-1.5-1.5-1.9-2.4-.1-.3-.2-.8-.2-1.2h0c0-.9.2-1.6.6-2.2l.7-1.2ZM30,17.9c-.1.2-.2.3-.3.4-1.1,1.2-2.3,2.5-3.5,3.8-.6.6-.9,1.1-1.1,2-.6,1.9-1.8,3.2-3.5,3.8-1.2.4-2.5.6-3.9.3-.9-.1-1.9-.3-2.8-.7-.3-.1-.4-.3-.4-.7s.2-.6.6-.6c.9,0,1.3-.6,1.5-1.5.1-.7.3-1.3.4-2.1.3-1.3,1-2.5,2.4-3.2.6-.2,1.1-.4,1.8-.6.1,0,.3,0,.4-.2,2.5-2.5,5.2-5,7.8-7.3.1-.1.1-.2,0-.4C27.2,5.4,21.2,1,15.2,1.7c-3.2.3-4.2.6-6.3,1.6-1,.6-2,1.3-2.8,2.4-1.2,1.8-1.6,4.5.5,6,.4.3.9.7,1.3,1,.6.4,1,1,1.3,1.8.7,1.7.2,3.3-1.2,4.6-.6.4-1.1.8-1.8,1.2-1.2,1-1.7,2.4-1.2,4s1.1,2.3,2.1,3.1c3.2,2.4,6.7,3.4,10.8,2.6,5.2-1,8.8-4,10.9-8.9.4-1.1.8-2.3.9-3.5v.3h.3ZM37.3,7c-.4.2-.9.6-1.3.9-4.7,3.5-8.9,7.5-13.2,11.6-.1.1-.1.2,0,.4l1.8,1.8c.1.2.2.1.4,0,3.6-3.8,7.1-7.7,10.5-11.8.7-.9,1.3-1.8,2-2.8h-.1ZM16.9,26.8c.4.1.9.2,1.3.2,2.8.2,4.9-.9,5.6-3.8v-.3l-2.3-2.3s-.2-.1-.3,0c-1.7.2-2.6,1-3,2.6,0,.2,0,.3-.1.6-.2,1.1-.3,2.3-1.1,3.2v-.2h-.1Z"/>
  <path class="cls-3" d="M13.5,23.7c0,1.7-1.2,2.9-2.9,2.8-1.7,0-2.9-1.2-2.9-2.9s1.2-2.9,2.9-2.8c1.7,0,2.9,1.2,2.9,2.9ZM12.2,23.7c0-.8-.7-1.7-1.5-1.7s-1.7.7-1.7,1.5.7,1.5,1.5,1.5,1.7-.7,1.7-1.5h0v.2Z"/>
  <path class="cls-2" d="M14.6,7.4c0-1.7,1.2-2.9,2.9-2.9s2.9,1.2,2.9,2.8-1.2,2.9-2.9,2.9-2.9-1.2-2.9-2.8ZM15.9,7.4c0,.8.7,1.5,1.7,1.5s1.5-.7,1.5-1.5-.7-1.5-1.5-1.7c-.8,0-1.7.7-1.7,1.5h0v.2Z"/>
  <path class="cls-4" d="M12.6,9.6c0,1.7-1.2,2.9-2.9,2.8-1.7,0-2.8-1.3-2.8-2.9s1.2-2.8,2.9-2.8,2.8,1.2,2.8,2.9ZM10,11.1c.8,0,1.5-.7,1.5-1.5s-.7-1.5-1.7-1.5-1.5.7-1.5,1.5.7,1.5,1.7,1.5Z"/>
  <path class="cls-5" d="M23.9,14.8c-1.7,0-2.9-1.2-2.9-2.8s1.2-2.9,2.8-2.9,2.9,1.1,2.9,2.8-1.1,2.9-2.8,2.9ZM25.4,12c0-.8-.7-1.5-1.7-1.5s-1.5.7-1.5,1.5.7,1.5,1.7,1.5,1.5-.7,1.5-1.5Z"/>
</svg>