<?xml version="1.0" encoding="UTF-8"?>
<svg id="Layer_1" data-name="Layer 1" xmlns="http://www.w3.org/2000/svg" xmlns:xlink="http://www.w3.org/1999/xlink" version="1.1" viewBox="0 0 42 32">
  <defs>
    <style>
      .cls-1 {
        fill: url(#linear-gradient);
        stroke: #ff860d;
        stroke-width: .2px;
      }
    </style>
    <linearGradient id="linear-gradient" x1="2.6" y1="18" x2="39.2" y2="18" gradientTransform="translate(0 34) scale(1 -1)" gradientUnits="userSpaceOnUse">
      <stop offset=".3" stop-color="#ff9e00"/>
      <stop offset="1" stop-color="#ff804b"/>
    </linearGradient>
  </defs>
  <path class="cls-1" d="M5.6,12c-2.3-2.6-1.4-5.8.3-7.2,1.8-1.6,4.6-1.7,6.5,0,1.7,1.4,2.7,4.4.6,7.1h3.8c-1.6-1.5-2.4-3.3-2.1-5.4.1-2.1,1.1-3.8,2.9-5.1C20.5-.4,24.2,0,26.3,2.5c2.1,2.5,2.5,6.5-.5,9.4,2.9.3,4.3,2,4.3,5q.2,0,.3-.2c1.1-.8,2.3-1.6,3.4-2.4,1.1-.8,2.3-.9,3.5-.3s1.8,1.6,1.8,2.9v10c0,1.4-.7,2.4-1.8,2.9s-2.4.5-3.4-.3c-1.1-.8-2.4-1.7-3.5-2.5,0,0-.2-.2-.3-.1v.3c0,1.6-.5,2.8-1.7,3.7-.8.6-1.6.8-2.5.8H7.1c-2.5,0-4.3-1.8-4.3-4.3v-11.4c0-1.9,1-3.4,2.8-4.1h.2-.2ZM16.3,30h9.4c1.6,0,2.6-1,2.6-2.6v-11.3c0-1.6-1-2.6-2.7-2.6H6.8c-1.6,0-2.6,1-2.6,2.6v12c.2,1.2,1.2,1.9,2.5,1.9h9.6ZM37.5,21.7v-4.9c0-.7-.2-1.2-.9-1.6-.7-.3-1.2-.2-1.8.2-1.5,1-2.9,2.1-4.4,3.2-.2.1-.2.2-.2.5v5.2c0,.2,0,.3.2.5,1.5,1,2.9,2.1,4.4,3.2.6.5,1.2.6,1.9.2.7-.3.9-.9.9-1.7v-4.9h-.1ZM26.3,6.8c0-2.8-2.3-5-5-5s-5,2.3-5,5,2.3,5,5,5,5-2.3,5-5ZM12.6,8.5c0-1.8-1.5-3.3-3.3-3.4-1.8,0-3.4,1.5-3.4,3.3s1.5,3.3,3.3,3.3,3.3-1.5,3.3-3.3h.1Z"/>
</svg>