<?xml version="1.0" encoding="UTF-8"?>
<svg id="Layer_1" data-name="Layer 1" xmlns="http://www.w3.org/2000/svg" xmlns:xlink="http://www.w3.org/1999/xlink" version="1.1" viewBox="0 0 42 32">
  <defs>
    <style>
      .cls-1 {
        fill: url(#linear-gradient-3);
      }

      .cls-1, .cls-2, .cls-3 {
        stroke: #ff860d;
        stroke-width: .2px;
      }

      .cls-2 {
        fill: url(#linear-gradient-2);
      }

      .cls-3 {
        fill: url(#linear-gradient);
      }
    </style>
    <linearGradient id="linear-gradient" x1="3.7" y1="18" x2="38.5" y2="18" gradientTransform="translate(0 34) scale(1 -1)" gradientUnits="userSpaceOnUse">
      <stop offset=".3" stop-color="#ff9e00"/>
      <stop offset="1" stop-color="#ff804b"/>
    </linearGradient>
    <linearGradient id="linear-gradient-2" x1="13" y1="16.3" x2="29.2" y2="16.3" xlink:href="#linear-gradient"/>
    <linearGradient id="linear-gradient-3" x1="31.2" y1="22.9" x2="34.5" y2="22.9" xlink:href="#linear-gradient"/>
  </defs>
  <path class="cls-3" d="M38.5,26.3c-.2.6-.3,1.2-.7,1.7-.8,1.1-1.9,1.7-3.4,1.7H7.9c-1.6,0-2.8-.6-3.6-2-.4-.6-.5-1.3-.5-2.1V9.3c0-1.9,1.3-3.4,3.1-3.9h5.9c.1,0,.3,0,.3-.2,0-1.6,1.4-2.9,3.2-2.9h9.7c1.6,0,2.6.9,3,2.3v.5c0,.2.1.3.3.3h5.1c1.8,0,3.3,1.1,3.8,2.7,0,.2,0,.5.2.7v17.4h.1ZM21.1,28h14.1c1.1-.3,1.6-1.1,1.6-2.3V9.7c0-.4,0-.7-.2-1.1-.4-.8-1.1-1.2-2.1-1.2h-6.1c-.6,0-1-.4-1-1v-.6c0-1.1-.4-1.5-1.5-1.5h-9.7c-.6,0-1.1.5-1.2,1.1v.9c0,.8-.3,1.1-1.1,1.1h-6.1c-1.3,0-2.2.9-2.2,2.2v16.2c0,.4,0,.7.2,1.1.5.9,1.2,1.2,2.1,1.2h13.3-.1Z"/>
  <path class="cls-2" d="M29.2,17.7c0,4.5-3.6,8.1-8.1,8.1s-8.1-3.7-8.1-8.1,3.7-8.2,8.2-8.1c4.5,0,8.1,3.7,8.1,8.1h-.1ZM27.4,17.7c0-3.5-2.8-6.4-6.3-6.4s-6.3,2.8-6.3,6.3,2.8,6.3,6.3,6.3,6.3-2.8,6.3-6.3h0Z"/>
  <path class="cls-1" d="M32.9,12.7c-.9,0-1.6-.7-1.6-1.6s.7-1.6,1.6-1.6,1.6.7,1.6,1.6-.7,1.6-1.6,1.6Z"/>
</svg>